<?xml version="1.0" encoding="utf-8"?>
<!-- Generator: Adobe Illustrator 25.1.0, SVG Export Plug-In . SVG Version: 6.00 Build 0)  -->
<svg version="1.1" id="Layer_1" xmlns="http://www.w3.org/2000/svg" xmlns:xlink="http://www.w3.org/1999/xlink" x="0px" y="0px"
	 width="512px" height="512px" viewBox="0 0 512 512" style="enable-background:new 0 0 512 512;" xml:space="preserve">
<style type="text/css">
	.st0{fill:#FFFFFF;}
</style>
<g transform="translate(0.000000,512.000000) scale(0.100000,-0.100000)">
	<path class="st0" d="M453,5101c-217-63-381-230-437-448C1,4597,0,4393,2,2538L5,485l26-72C98,232,236,94,420,28l65-23l988-3l987-2
		v920v920h-292c-275,0-295,1-326,20c-18,11-41,34-52,52c-19,32-20,51-20,438s1,406,20,438c11,18,34,41,52,52c31,19,51,20,324,20h292
		l5,298c4,260,7,307,26,380c87,340,341,587,689,669c68,16,126,18,487,18c380,0,412-1,440-18c17-10,39-31,50-45c19-26,20-45,23-437
		c3-468,4-460-78-502c-43-22-53-23-327-23h-283v-170v-170h293c274,0,294-1,325-20c18-11,41-34,52-52c19-32,20-51,20-438
		s-1-406-20-438c-11-18-34-41-52-52c-31-19-51-20-325-20h-293V920V-1l573,3l572,3l72,26c181,67,319,205,385,389l23,65v2075v2075
		l-26,72c-67,181-205,319-389,385l-65,23l-2060,2C633,5119,511,5118,453,5101z"/>
	<path class="st0" d="M3206,3914c-197-48-372-222-431-429c-15-50-18-121-22-437c-7-516,26-478-405-478h-288v-220v-220h288
		c321,0,335-3,379-69l23-34V1014V0h220h220l2,1008c3,986,3,1008,23,1041c11,19,33,43,48,55c27,20,41,21,328,24l299,3v219v219l-299,3
		c-287,3-301,4-328,24c-15,12-37,36-48,55c-19,32-20,55-23,329c-2,162-1,318,3,347c7,60,36,108,84,140c33,23,39,23,322,23h289v220
		v220l-312-1C3344,3929,3250,3925,3206,3914z"/>
</g>
</svg>
