<svg xmlns="http://www.w3.org/2000/svg" width="83.846" height="64.582">
    <path data-name="Path 337" d="m829.629 624.75-11.542-18.092a1.925 1.925 0 0 0-1.633-.9H788.01a1.937 1.937 0 1 0 0 3.874h27.38l10.164 15.932-19.941 21.336-40.027-40.562a1.92 1.92 0 0 0-1.364-.578c-.057 0-.114.013-.17.018s-.117-.018-.179-.018h-5.46a1.938 1.938 0 0 0-1.679.973l-10.389 18.093a1.929 1.929 0 0 0 .27 2.293l40.145 42.61a1.951 1.951 0 0 0 1.368.607c.047 0 .094.006.141.006a1.8 1.8 0 0 0 1.315-.62l39.825-42.608a1.937 1.937 0 0 0 .22-2.364zM763.4 609.635l39.569 40.1-14.8 15.836-37.748-40.061 9.114-15.875z" transform="translate(-746.086 -605.761)" style="fill:#fff"/>
</svg>
