<svg xmlns="http://www.w3.org/2000/svg" width="79.164" height="61.078">
    <defs>
        <style>
            .cls-1{fill:#fff}
        </style>
    </defs>
    <g id="Group_391" data-name="Group 391" transform="translate(-76.459 -80.911)">
        <path id="Rectangle_8" data-name="Rectangle 8" class="cls-1" d="M0 0a31.318 31.318 0 0 1 31.318 31.318v29.76A31.318 31.318 0 0 1 0 29.759V0z" transform="translate(76.459 80.911)"/>
        <path id="Path_334" data-name="Path 334" class="cls-1" d="M140.478 116.667v-15.805a19.951 19.951 0 0 1 19.951-19.951v15.806a19.951 19.951 0 0 1-19.951 19.95z" transform="translate(-29.957)"/>
        <path id="Rectangle_9" data-name="Rectangle 9" class="cls-1" d="M0 0h22.88A22.221 22.221 0 0 1 45.1 22.221H22.221A22.221 22.221 0 0 1 0 0z" transform="translate(110.521 119.767)"/>
    </g>
</svg>
