<svg xmlns="http://www.w3.org/2000/svg" width="74.713" height="67.426">
    <path data-name="Path 336" d="M1031.857 84.9a18.456 18.456 0 0 0-15.268 8.219l12.155 14.146a2.7 2.7 0 0 1-4.1 3.522l-10.866-12.646-5.992-6.973c-1.451-1.689-2.76-3.569-4.8-4.595a16.991 16.991 0 0 0-7.616-1.673c-12.289.076-21.338 13.675-18.631 26.393 1.349 6.34 5.9 11.495 9.509 16.475 4.616 6.36 13.611 15.38 20.028 21.542a10.437 10.437 0 0 0 14.676 0c6.418-6.162 15.412-15.183 20.028-21.542 3.614-4.98 8.161-10.135 9.51-16.475 2.705-12.719-6.344-26.317-18.633-26.393z" transform="translate(-976.257 -84.899)" style="fill:#fff"/>
</svg>
