<?xml version="1.0" encoding="utf-8"?>
<!-- Generator: Adobe Illustrator 25.1.0, SVG Export Plug-In . SVG Version: 6.00 Build 0)  -->
<svg version="1.1" id="Layer_1" xmlns="http://www.w3.org/2000/svg" xmlns:xlink="http://www.w3.org/1999/xlink" x="0px" y="0px"
	 width="512px" height="512px" viewBox="0 0 512 512" style="enable-background:new 0 0 512 512;" xml:space="preserve">
<style type="text/css">
	.st0{fill:#FFFFFF;}
</style>
<g transform="translate(0.000000,512.000000) scale(0.100000,-0.100000)">
	<path class="st0" d="M1215,5105C645,5025,186,4615,46,4060c-14-52-29-135-35-185c-15-124-15-2506,0-2630C80,662,495,188,1060,46
		c52-14,136-29,185-35c124-15,2506-15,2630,0c525,62,964,405,1155,901c31,81,67,233,79,333c15,124,15,2506,0,2630
		c-62,525-405,964-901,1155c-81,31-233,67-333,79C3738,5126,1334,5122,1215,5105z M4176,4453c129-43,233-147,277-277
		c21-62,22-184,2-250c-82-271-405-387-640-230c-138,91-211,254-186,413c26,160,135,291,284,342C3981,4474,4110,4476,4176,4453z
		 M2780,3945c297-49,559-183,770-395c269-268,410-609,410-990s-141-722-410-990c-268-269-609-410-990-410s-722,141-990,410
		c-269,268-410,609-410,990s141,722,410,990c207,208,470,344,760,395C2433,3962,2676,3963,2780,3945z"/>
	<path class="st0" d="M3989,4155c-58-31-80-116-45-170c68-104,226-58,226,65C4170,4140,4068,4198,3989,4155z"/>
	<path class="st0" d="M2366,3644c-521-94-906-554-906-1084c0-679,619-1201,1286-1085c733,128,1131,929,791,1590
		C3317,3490,2835,3729,2366,3644z"/>
</g>
</svg>
