<?xml version="1.0" encoding="utf-8"?>
<!-- Generator: Adobe Illustrator 25.1.0, SVG Export Plug-In . SVG Version: 6.00 Build 0)  -->
<svg version="1.1" id="Layer_1" xmlns="http://www.w3.org/2000/svg" xmlns:xlink="http://www.w3.org/1999/xlink" x="0px" y="0px"
	 width="512px" height="512px" viewBox="0 0 512 512" style="enable-background:new 0 0 512 512;" xml:space="preserve">
<style type="text/css">
	.st0{fill:#E6E6E6;}
	.st1{fill:#FFFFFF;}
	.st2{fill:#F2F2F2;}
</style>
<g>
	<g>
		<g>
			<path class="st0" d="M56.34,195.24v-0.03C56.31,195.21,56.32,195.22,56.34,195.24z"/>
			<path class="st0" d="M455.23,195.21v0.03C455.25,195.22,455.25,195.21,455.23,195.21z"/>
			<path class="st1" d="M255.78,280.94c0,0-146.05-62.06-188.2-80.57c-5.3-2.33-11.25,1.55-11.25,7.34l0,187.6
				c0,3,1.67,5.75,4.34,7.12l191.43,98.98c2.31,1.19,5.06,1.19,7.37,0l191.43-98.98c2.66-1.38,4.34-4.13,4.34-7.12v-187.6
				c0-5.79-5.95-9.67-11.25-7.34C401.84,218.88,255.78,280.94,255.78,280.94z"/>
		</g>
		<g>
			<polygon class="st1" points="255.34,224.2 255.22,258.56 456,172.01 456,139.78 			"/>
			<polygon class="st1" points="57,172.01 255.22,258.38 255.22,224.22 57,139.78 			"/>
		</g>
		<polygon class="st2" points="455.99,139.78 255.21,224.22 56,139.78 215.03,73.54 256.98,92.61 299.18,73.9 		"/>
	</g>
	<line class="st1" x1="217.6" y1="73.33" x2="218.03" y2="73.54"/>
	<g>
		<path class="st2" d="M217.59,27.02l35.44-16.67c2.1-0.86,4.45-0.87,6.55-0.02l36.79,16.6l-39.67,17.41L217.59,27.02z"/>
		<polygon class="st1" points="256.98,44.37 217.59,27.02 217.59,60.36 256.98,78.14 256.98,78.23 296.36,60.6 296.36,26.93 		"/>
	</g>
</g>
<g>
</g>
<g>
</g>
<g>
</g>
<g>
</g>
<g>
</g>
<g>
</g>
<g>
</g>
<g>
</g>
<g>
</g>
<g>
</g>
<g>
</g>
<g>
</g>
<g>
</g>
<g>
</g>
<g>
</g>
</svg>
