<?xml version="1.0" encoding="utf-8"?>
<!-- Generator: Adobe Illustrator 25.1.0, SVG Export Plug-In . SVG Version: 6.00 Build 0)  -->
<svg version="1.1" id="Layer_1" xmlns="http://www.w3.org/2000/svg" xmlns:xlink="http://www.w3.org/1999/xlink" x="0px" y="0px"
	 width="1679.04px" height="512px" viewBox="0 0 1679.04 512" style="enable-background:new 0 0 1679.04 512;" xml:space="preserve"
	>
<style type="text/css">
	.st0{fill:#E6E6E6;}
	.st1{fill:#FFFFFF;}
	.st2{fill:#F2F2F2;}
</style>
<g>
	<g>
		<g>
			<path class="st0" d="M21.98,195.24v-0.03C21.95,195.21,21.96,195.22,21.98,195.24z"/>
			<path class="st0" d="M420.87,195.21v0.03C420.89,195.22,420.89,195.21,420.87,195.21z"/>
			<path class="st1" d="M221.42,280.94c0,0-146.05-62.06-188.2-80.57c-5.3-2.33-11.25,1.55-11.25,7.34l0,187.6
				c0,3,1.67,5.75,4.34,7.12l191.43,98.98c2.31,1.19,5.06,1.19,7.37,0l191.43-98.98c2.66-1.38,4.34-4.13,4.34-7.12v-187.6
				c0-5.79-5.95-9.67-11.25-7.34C367.48,218.88,221.42,280.94,221.42,280.94z"/>
		</g>
		<g>
			<polygon class="st1" points="220.98,224.2 220.86,258.56 421.64,172.01 421.64,139.78 			"/>
			<polygon class="st1" points="22.64,172.01 220.86,258.38 220.86,224.22 22.64,139.78 			"/>
		</g>
		<polygon class="st2" points="421.63,139.78 220.85,224.22 21.64,139.78 180.67,73.54 222.62,92.61 264.82,73.9 		"/>
	</g>
	<line class="st1" x1="183.24" y1="73.33" x2="183.67" y2="73.54"/>
	<g>
		<path class="st2" d="M183.23,27.02l35.44-16.67c2.1-0.86,4.45-0.87,6.55-0.02L262,26.93l-39.67,17.41L183.23,27.02z"/>
		<polygon class="st1" points="222.62,44.37 183.23,27.02 183.23,60.36 222.62,78.14 222.62,78.23 262,60.6 262,26.93 		"/>
	</g>
</g>
<g>
	<path class="st1" d="M547.77,237.78c17.7,2.45,25.04,18.45,25.04,30.88c0,18.83-11.11,38.41-42.74,38.41H473.2V177.34h53.1
		c24.1,0,39.73,13.93,39.73,34.83C566.03,219.52,562.08,233.83,547.77,237.78z M521.78,227.43c6.59,0,10.92-4.14,10.92-10.73
		c0-6.78-3.01-11.86-10.54-11.86h-17.32v22.59H521.78z M504.83,253.22v26.36h20.15c9.79,0,14.5-6.78,14.5-13.37
		c0-6.03-4.14-12.99-14.69-12.99H504.83z"/>
	<path class="st1" d="M594.46,307.08V177.34h31.82v102.24h46.7v27.49H594.46z"/>
	<path class="st1" d="M747.92,175.65c36.91,0,66.28,29.94,66.28,66.66c0,36.53-29.37,66.47-66.28,66.47
		c-36.72,0-66.09-29.94-66.09-66.47C681.83,205.58,711.21,175.65,747.92,175.65z M747.92,277.14c19.02,0,34.65-15.44,34.65-34.83
		c0-19.39-15.63-35.02-34.65-35.02c-19.21,0-34.27,15.63-34.27,35.02C713.65,261.7,728.72,277.14,747.92,277.14z"/>
	<path class="st1" d="M949.77,279.02c-12.05,18.08-31.82,29.75-55.17,29.75c-36.72,0-66.09-29.94-66.09-66.47
		c0-36.72,29.37-66.66,66.09-66.66c23.35,0,43.31,11.67,55.36,29.75c1.32-0.56-5.46,3.77-12.24,8.47l-13.93,9.79
		c-6.03-9.79-16.95-16.38-29.19-16.38c-19.21,0-34.27,15.63-34.27,35.02c0,19.39,15.06,34.83,34.27,34.83
		c12.62,0,23.16-6.4,29.37-16.19L949.77,279.02z"/>
	<path class="st1" d="M1077.43,307.08h-43.12l-33.89-39.54v39.54h-31.44V177.34h31.44v37.09l25.8-37.09h39.35l-48.77,64.02
		L1077.43,307.08z"/>
	<path class="st1" d="M1088.17,307.08V177.34h53.66c30.69,0,44.44,21.65,44.44,43.31c0,18.26-9.98,36.53-31.07,41.61l31.63,44.81
		h-36.53l-27.87-43.31h-2.82v43.31H1088.17z M1119.61,204.83v31.82h20.71c10.36,0,14.12-8.29,14.12-16
		c0-7.53-3.77-15.82-14.12-15.82H1119.61z"/>
	<path class="st1" d="M1209.05,307.08V177.34h84.17v27.49h-52.72v24.85h46.32v26.93h-46.32v22.97h54.42v27.49H1209.05z"/>
	<path class="st1" d="M1387.37,277.32h-40.86l-10.92,29.75h-33.71l47.83-129.73h34.27l47.64,129.73h-33.33L1387.37,277.32z
		 M1354.98,250.21h24.29l-12.62-42.74L1354.98,250.21z"/>
	<path class="st1" d="M1424.46,204.83v-27.49h98.48v27.49h-33.52v102.24h-31.44V204.83H1424.46z"/>
	<path class="st1" d="M1542.52,307.08V177.34h84.17v27.49h-52.72v24.85h46.32v26.93h-46.32v22.97h54.42v27.49H1542.52z"/>
</g>
<g>
</g>
<g>
</g>
<g>
</g>
<g>
</g>
<g>
</g>
<g>
</g>
<g>
</g>
<g>
</g>
<g>
</g>
<g>
</g>
<g>
</g>
<g>
</g>
<g>
</g>
<g>
</g>
<g>
</g>
</svg>
