<?xml version="1.0" standalone="no"?>
<!DOCTYPE svg PUBLIC "-//W3C//DTD SVG 20010904//EN"
 "http://www.w3.org/TR/2001/REC-SVG-20010904/DTD/svg10.dtd">
<svg version="1.0" xmlns="http://www.w3.org/2000/svg"
 width="512.000000pt" height="512.000000pt" viewBox="0 0 512.000000 512.000000"
 preserveAspectRatio="xMidYMid meet">
<metadata>
Created by potrace 1.16, written by Peter Selinger 2001-2019
</metadata>
<g transform="translate(0.000000,512.000000) scale(0.100000,-0.100000)"
fill="#ffffff" stroke="none">
<path d="M1292 5103 c-18 -9 -43 -30 -55 -47 l-22 -31 -3 -1210 -2 -1210 402
-402 403 -403 545 0 545 0 403 403 402 402 -2 1202 -3 1201 -30 38 c-17 20
-46 45 -65 55 -33 18 -85 19 -1260 19 -1108 0 -1228 -2 -1258 -17z m1466 -629
c403 -83 716 -383 818 -784 14 -56 19 -110 19 -216 l0 -140 -38 -76 c-45 -93
-123 -168 -217 -211 -53 -25 -82 -31 -160 -35 -111 -5 -180 14 -267 74 l-53
36 -52 -36 c-85 -58 -157 -78 -263 -73 -63 2 -107 10 -148 26 -108 43 -205
139 -249 249 -33 82 -33 242 0 325 44 109 140 205 250 249 47 19 76 23 162 23
120 0 184 -20 264 -81 103 -79 160 -184 178 -329 5 -44 17 -93 27 -110 48 -85
210 -87 261 -3 46 75 17 280 -62 438 -34 69 -60 103 -138 180 -77 78 -111 104
-180 138 -118 59 -218 82 -350 82 -132 0 -232 -23 -350 -82 -69 -34 -103 -60
-180 -138 -78 -77 -104 -111 -138 -180 -65 -131 -85 -226 -80 -379 8 -212 67
-350 213 -497 145 -146 296 -214 496 -222 135 -5 238 12 355 59 87 34 127 36
170 10 35 -21 74 -93 74 -135 0 -32 -20 -74 -46 -98 -25 -22 -153 -72 -256
-100 -115 -31 -384 -33 -498 -4 -408 104 -701 413 -785 828 -23 109 -16 340
13 443 109 396 413 684 812 770 91 19 303 19 398 -1z"/>
<path d="M2476 3581 c-46 -31 -66 -69 -66 -131 0 -97 54 -150 154 -150 52 0
61 3 91 33 32 32 55 88 55 135 0 33 -24 75 -60 106 -26 21 -42 26 -88 26 -39
0 -66 -6 -86 -19z"/>
<path d="M682 3597 c-122 -122 -222 -227 -222 -232 0 -6 101 -111 225 -235
l225 -225 0 458 c0 251 -1 457 -3 457 -1 0 -102 -100 -225 -223z"/>
<path d="M4210 3365 l0 -460 225 225 c124 124 225 229 225 235 0 6 -101 111
-225 235 l-225 225 0 -460z"/>
<path d="M312 1715 c3 -1356 3 -1381 23 -1423 l20 -43 700 701 700 700 -723
723 -722 722 2 -1380z"/>
<path d="M4085 2370 l-720 -720 700 -700 700 -701 20 43 c20 42 20 67 23 1098
1 580 1 1200 0 1378 l-3 322 -720 -720z"/>
<path d="M1286 771 l-728 -728 48 -19 c47 -18 114 -19 1954 -19 1840 0 1907 1
1954 19 l48 19 -728 728 -729 729 -545 0 -545 0 -729 -729z"/>
</g>
</svg>
