<svg xmlns="http://www.w3.org/2000/svg" width="104.585" height="64.582">
    <path data-name="Path 338" d="M1051.4 394.938a37.278 37.278 0 0 0-20.953-10.462 1.863 1.863 0 0 0-.538 3.686 33.589 33.589 0 0 1 17.455 8.1 34.337 34.337 0 0 1-43.344 1.556 38.03 38.03 0 0 0 33.117-37.313 1.872 1.872 0 0 0-.544-1.326 1.772 1.772 0 0 0-1.36-.547 37.317 37.317 0 0 0-21.807 7.142 1.863 1.863 0 0 0 2.189 3.014 33.625 33.625 0 0 1 17.731-6.367 34.311 34.311 0 0 1-29.612 31.672 37.866 37.866 0 0 0-2.816-49.635 1.892 1.892 0 0 0-2.648 0 37.277 37.277 0 0 0-10.461 20.951 1.862 1.862 0 1 0 3.686.539 33.6 33.6 0 0 1 8.1-17.454 33.583 33.583 0 0 1 8.354 22.953 34.177 34.177 0 0 1-7.021 20.193 37.851 37.851 0 0 0-36.859-33 1.862 1.862 0 0 0-1.89 1.863v3.456c0 .061 0 .123.01.189a37.509 37.509 0 0 0 6.573 17.667 1.868 1.868 0 0 0 2.594.458 1.862 1.862 0 0 0 .458-2.594 33.779 33.779 0 0 1-5.91-15.815v-1.426a33.578 33.578 0 0 1 22.04 10.351 34.072 34.072 0 0 1 9.258 19.13 37.847 37.847 0 0 0-49.275 2.9 1.849 1.849 0 0 0-.557 1.319 1.869 1.869 0 0 0 .546 1.327l2.437 2.436a1.621 1.621 0 0 0 .147.134 37.606 37.606 0 0 0 23.7 8.418h.072a37.527 37.527 0 0 0 19.111-5.236 1.862 1.862 0 1 0-1.9-3.2 33.809 33.809 0 0 1-17.2 4.714h-.1a33.875 33.875 0 0 1-21.255-7.522l-1.009-1.009a34.044 34.044 0 0 1 46.141 1.388l.007.007.011.011a37.655 37.655 0 0 0 26.65 10.9 37.674 37.674 0 0 0 26.673-10.913 1.862 1.862 0 0 0 0-2.648z" transform="translate(-947.366 -343.917)" style="fill:#fff"/>
</svg>
