<svg xmlns="http://www.w3.org/2000/svg" width="47.299" height="56.418">
    <path data-name="Path 335" d="M145.97 380.8c3.912-3.811 5.9-9.144 5.9-15.854s-1.985-12.034-5.9-15.824c-3.9-3.774-9.573-5.688-16.861-5.688H110.34v17.756h-2.566v-18.1h-3.208v56.42h8.981v-29.252a27.7 27.7 0 0 1 21.568 12.5 30.2 30.2 0 0 1-6.01.563h-8.2v3.208h8.2a32.331 32.331 0 0 0 7.681-.854 27.52 27.52 0 0 1 2.856 12.232v1.6h9.016v-1.6a36.488 36.488 0 0 0-3.753-16.158c.366-.304.725-.616 1.065-.949zm-16.864-34.158c6.427 0 11.349 1.61 14.63 4.786s4.922 7.71 4.922 13.519S147 375.32 143.732 378.5c-.13.127-.268.247-.4.369a36.74 36.74 0 0 0-29.781-17.644v-14.581zM107.774 396.3v-31.9h2.566v31.9zm5.774-29.261v-2.6a33.532 33.532 0 0 1 27.163 16.307 16.982 16.982 0 0 1-2.371 1.1 30.928 30.928 0 0 0-24.793-14.804zm31.864 29.261h-2.6a30.683 30.683 0 0 0-2.928-11.608 19.95 19.95 0 0 0 2.345-1.12 33.273 33.273 0 0 1 3.183 12.728z" transform="translate(-104.566 -343.092)" style="fill:#fff"/>
</svg>
