<?xml version="1.0" encoding="utf-8"?>
<!-- Generator: Adobe Illustrator 25.1.0, SVG Export Plug-In . SVG Version: 6.00 Build 0)  -->
<svg version="1.1" id="Layer_1" xmlns="http://www.w3.org/2000/svg" xmlns:xlink="http://www.w3.org/1999/xlink" x="0px" y="0px"
	 width="512px" height="512px" viewBox="0 0 512 512" style="enable-background:new 0 0 512 512;" xml:space="preserve">
<style type="text/css">
	.st0{fill:#FFFFFF;}
</style>
<g transform="translate(0.000000,512.000000) scale(0.100000,-0.100000)">
	<path class="st0" d="M4730,4766c-30-13-158-75-285-138c-126-63-258-128-292-143l-63-28l-69,31c-390,174-872,86-1184-217
		c-245-237-377-542-394-909l-6-133l-46,6c-717,95-1314,502-1678,1145c-48,83-82,112-142,118c-64,6-103-10-141-58
		c-43-54-107-177-135-260c-28-82-55-249-55-336c1-126,42-317,94-431c15-31,24-58,22-60c-2-3-43,7-89,21c-101,31-140,32-187,7
		c-37-19-80-88-80-127c0-13,9-63,20-111c87-371,302-657,637-848l75-43l-53-15c-30-9-74-21-98-27c-60-16-83-33-109-79
		c-53-95-16-165,167-310c203-161,448-284,729-365c62-18,113-36,113-40c0-13-110-85-200-131c-110-56-242-99-385-126
		c-90-17-162-22-381-26c-308-5-339-10-380-71c-30-44-33-107-9-158c18-38,105-110,201-168c262-157,803-315,1268-370
		c670-80,1304-7,1795,207c279,122,488,266,707,488c433,442,685,939,780,1539c25,161,25,560-1,748l-18,132l123,196
		c67,108,126,211,132,229c22,72-18,149-94,179c-35,14-55,15-141,6c-55-5-118-10-139-10h-39l125,250c68,137,127,266,130,287
		c9,57-27,122-85,151C4815,4795,4799,4795,4730,4766z"/>
</g>
</svg>
