<?xml version="1.0" encoding="utf-8"?>
<!-- Generator: Adobe Illustrator 25.1.0, SVG Export Plug-In . SVG Version: 6.00 Build 0)  -->
<svg version="1.1" id="Layer_1" xmlns="http://www.w3.org/2000/svg" xmlns:xlink="http://www.w3.org/1999/xlink" x="0px" y="0px"
	 width="512px" height="512px" viewBox="0 0 512 512" style="enable-background:new 0 0 512 512;" xml:space="preserve">
<style type="text/css">
	.st0{fill:#E6E6E6;}
	.st1{fill:#FFFFFF;}
	.st2{fill:#F0F8FF;}
	.st3{fill:none;}
</style>
<g>
	<g>
		<g>
			<g>
				<path class="st0" d="M56.3,194.8L56.3,194.8L56.3,194.8z"/>
				<path class="st0" d="M455.2,194.8L455.2,194.8L455.2,194.8z"/>
				<path class="st1" d="M255.8,280.5c0,0-146.1-62.1-188.2-80.6c-5.3-2.3-11.2,1.5-11.2,7.3v187.6c0,3,1.7,5.8,4.3,7.1l191.4,99
					c2.3,1.2,5.1,1.2,7.4,0l191.4-99c2.7-1.4,4.3-4.1,4.3-7.1V207.2c0-5.8-6-9.7-11.2-7.3C401.8,218.5,255.8,280.5,255.8,280.5z"/>
			</g>
			<polygon class="st2" points="456,139.4 255.2,223.8 56,139.4 144.3,102.6 255.2,150.5 368.5,103.7 			"/>
		</g>
		<line class="st3" x1="217.6" y1="72.9" x2="218" y2="73.1"/>
		<g>
			<path class="st2" d="M150.9,53.6L252,10.8c2.1-0.9,4.5-0.9,6.5,0l104.2,45.3l-107.1,45.7L150.9,53.6z"/>
			<polygon class="st1" points="255.8,101.4 150.9,53.6 150.9,86.9 255.8,135.2 255.8,135.3 362.8,89.7 362.8,56.1 			"/>
		</g>
	</g>
	<polygon class="st1" points="456,139.4 255.2,223.8 57,139.4 57,171.6 255.2,258.1 456,171.6 	"/>
</g>
</svg>
