<?xml version="1.0" encoding="utf-8"?>
<!-- Generator: Adobe Illustrator 25.1.0, SVG Export Plug-In . SVG Version: 6.00 Build 0)  -->
<svg version="1.1" id="Layer_1" xmlns="http://www.w3.org/2000/svg" xmlns:xlink="http://www.w3.org/1999/xlink" x="0px" y="0px"
	 width="512px" height="512px" viewBox="0 0 512 512" style="enable-background:new 0 0 512 512;" xml:space="preserve">
<style type="text/css">
	.st0{fill:#FFFFFF;}
</style>
<g transform="translate(0.000000,512.000000) scale(0.100000,-0.100000)">
	<path class="st0" d="M512,4235c-188-41-359-182-448-368c-66-139-64-97-64-1307s-2-1168,64-1307c90-188,261-327,452-368
		c104-22,3984-22,4088,0c241,51,448,262,501,510c22,104,22,2226,0,2330c-53,248-260,459-501,510C4504,4256,609,4256,512,4235z
		 M2803,3113c397-229,737-430,755-447c40-38,57-92,43-144c-6-21-25-51-43-68c-41-38-1463-859-1510-871c-66-18-138,15-170,78
		c-17,32-18,95-18,899s1,867,18,899c32,63,104,96,170,78C2067,3533,2406,3341,2803,3113z"/>
	<path class="st0" d="M2160,2560c0-314,4-570,9-568c22,9,980,564,980,568s-958,559-980,568C2164,3130,2160,2874,2160,2560z"/>
</g>
</svg>
